<?xml version="1.0" standalone="no"?>
<!DOCTYPE svg PUBLIC "-//W3C//DTD SVG 20010904//EN"
 "http://www.w3.org/TR/2001/REC-SVG-20010904/DTD/svg10.dtd">
<svg version="1.0" xmlns="http://www.w3.org/2000/svg"
 width="1000.000000pt" height="1000.000000pt" viewBox="0 0 1000.000000 1000.000000"
 preserveAspectRatio="xMidYMid meet">
<metadata>
Created by potrace 1.14, written by Peter Selinger 2001-2017
</metadata>
<g transform="translate(0.000000,1000.000000) scale(0.100000,-0.100000)"
fill="#000000" stroke="none">
<path d="M8077 8100 c-26 -10 -67 -22 -90 -26 -23 -4 -44 -8 -47 -9 -3 0 -23
-4 -44 -9 -60 -12 -136 -54 -183 -101 -44 -45 -83 -112 -83 -144 0 -17 -4 -16
-30 11 -26 26 -36 29 -71 25 -27 -3 -51 -14 -68 -31 -23 -23 -26 -34 -26 -94
0 -37 3 -83 7 -102 5 -22 5 -30 -1 -21 -13 20 -37 7 -55 -28 -14 -25 -14 -35
-2 -75 l14 -46 -26 -1 c-66 -3 -85 1 -104 23 -21 24 -37 58 -44 93 -2 11 -13
27 -24 37 -16 13 -26 14 -55 5 -19 -5 -44 -19 -54 -29 -27 -24 -34 -23 -54 11
-69 117 -171 140 -263 59 -51 -45 -107 -160 -99 -206 1 -9 -6 -27 -17 -39 -13
-13 -18 -29 -14 -39 5 -13 3 -14 -6 -7 -7 6 -42 18 -77 26 -75 19 -82 24 -47
33 14 3 26 12 26 20 0 7 -6 11 -12 9 -7 -2 -33 -7 -57 -9 l-44 -5 56 35 c32
20 55 40 52 45 -6 9 -116 -42 -147 -69 -9 -8 -43 -16 -75 -19 -92 -7 -975 -7
-1111 0 -96 5 -121 4 -116 -6 6 -9 4 -9 -7 -1 -8 7 -66 15 -129 18 -63 3 -128
9 -145 12 -46 10 -511 12 -586 3 -37 -4 -93 -17 -125 -29 -98 -35 -101 -34
-41 9 31 23 57 49 57 57 0 15 -19 9 -82 -26 -28 -16 -21 -3 20 35 37 34 28 50
-13 22 -11 -8 -85 -37 -165 -66 -80 -29 -155 -59 -167 -67 -13 -8 -23 -12 -23
-10 0 8 -140 -63 -196 -99 -30 -19 -57 -35 -60 -35 -3 0 -11 -6 -19 -12 -7 -7
-30 -27 -51 -44 -48 -39 -121 -112 -151 -150 l-22 -29 10 44 c14 65 -4 68 -43
7 -18 -27 -19 -28 -13 -6 14 53 18 120 6 120 -6 0 -11 -5 -11 -10 0 -6 -13
-40 -30 -75 -16 -35 -30 -66 -30 -69 0 -30 -176 -212 -315 -325 -73 -60 -88
-81 -89 -126 -1 -22 -8 -33 -27 -42 -32 -15 -104 -153 -115 -221 -3 -15 -7
-34 -9 -42 -2 -8 -7 -30 -10 -48 -11 -65 -56 -184 -90 -237 -42 -65 -44 -106
-10 -261 5 -21 -2 -26 -60 -39 -5 -2 -46 -13 -90 -24 -44 -12 -87 -23 -95 -26
-26 -6 -104 -25 -124 -30 -36 -9 -58 -38 -70 -98 -3 -12 -12 -50 -21 -85 -8
-35 -13 -67 -10 -72 3 -5 1 -11 -4 -14 -4 -3 -11 -19 -14 -35 -5 -24 -10 -28
-31 -24 -49 10 -96 -6 -116 -39 -10 -18 -17 -35 -14 -40 15 -24 -34 -15 -109
21 -94 44 -103 47 -221 57 -167 15 -231 9 -309 -30 -93 -46 -153 -119 -159
-193 -2 -27 -5 -30 -20 -22 -44 23 -229 -22 -323 -79 -93 -56 -219 -219 -231
-298 -13 -89 42 -209 117 -256 21 -12 39 -26 39 -29 0 -4 11 -10 25 -13 l25
-6 -30 -28 c-17 -15 -37 -45 -44 -67 -12 -34 -12 -45 2 -80 62 -157 227 -266
394 -259 37 1 75 7 85 12 12 7 25 7 37 0 12 -7 21 -7 29 1 19 19 26 12 17 -18
-7 -25 -5 -30 17 -40 13 -6 29 -9 34 -6 5 4 6 -8 1 -27 -13 -59 -6 -191 13
-249 19 -58 54 -135 85 -186 21 -36 20 -38 -30 -48 -45 -9 -136 -57 -176 -93
-38 -33 -63 -101 -58 -155 9 -86 71 -174 144 -205 19 -8 38 -18 41 -24 3 -5
-5 -32 -18 -59 -48 -99 -28 -187 54 -239 121 -77 326 -106 493 -70 47 10 103
20 125 23 l40 4 1 -51 c1 -28 4 -94 8 -146 3 -52 8 -142 11 -200 11 -206 6
-188 65 -259 82 -100 58 -90 218 -94 79 -1 146 1 149 6 3 5 5 72 5 149 0 77 3
136 8 132 4 -5 33 -59 65 -120 l57 -111 69 -33 c38 -19 69 -37 69 -42 0 -10
230 -11 231 0 1 4 2 89 3 190 1 120 -2 182 -9 182 -7 0 -7 3 1 8 15 10 16 312
0 312 -6 0 -5 4 3 9 9 6 29 4 52 -4 20 -8 39 -12 41 -10 2 2 2 -40 1 -93 -1
-53 -4 -186 -6 -295 l-4 -198 52 -45 c29 -24 58 -44 64 -44 7 0 10 -4 7 -9 -3
-5 2 -12 12 -16 16 -6 582 -8 589 -2 1 2 5 39 8 83 3 43 8 96 11 116 6 43 -1
51 -91 119 l-58 44 -96 0 -96 1 -3 39 -3 40 108 0 108 0 -3 80 c-2 46 -9 83
-15 87 -9 5 -9 8 -1 8 6 0 9 10 7 23 -3 17 0 23 14 23 31 1 104 13 114 20 5 3
60 9 122 12 l113 7 -1 -310 c0 -336 1 -343 59 -403 23 -24 34 -26 250 -38
l118 -6 -7 223 c-4 123 -8 258 -9 300 l-3 77 31 -9 c115 -33 251 28 306 138
13 26 25 43 26 38 9 -31 86 -324 90 -343 3 -13 12 -49 20 -80 8 -32 27 -102
41 -157 14 -55 31 -106 37 -114 6 -8 36 -31 66 -50 54 -35 59 -36 149 -36 98
0 99 1 116 50 5 13 9 16 12 7 3 -7 26 -23 51 -36 46 -22 68 -24 228 -17 18 1
24 12 39 72 9 39 14 73 11 76 -3 4 -2 11 3 17 4 6 32 126 61 266 29 140 56
258 60 262 3 4 7 -25 8 -65 3 -72 8 -142 11 -142 1 0 4 -18 6 -40 2 -22 7 -51
11 -65 4 -14 8 -27 9 -30 1 -3 5 -21 9 -40 5 -19 28 -77 52 -128 51 -111 137
-204 224 -245 64 -30 209 -47 280 -34 147 27 257 147 330 357 23 69 27 83 34
142 2 21 7 42 11 47 3 6 5 68 5 138 -1 71 -1 136 -1 146 0 9 -4 15 -10 12 -5
-4 -9 -4 -9 -1 0 2 14 11 30 20 l30 14 0 -41 c1 -23 2 -188 4 -367 2 -179 4
-328 5 -332 0 -4 30 -30 66 -57 l66 -49 130 2 c71 2 132 5 134 8 4 4 10 124
15 288 1 29 8 16 39 -71 21 -58 41 -111 45 -117 4 -6 36 -28 71 -47 l64 -36
118 11 c163 15 155 11 138 68 -15 49 -11 70 7 37 6 -11 22 -30 34 -42 21 -21
32 -23 134 -23 l110 0 1 28 c1 15 3 56 4 92 1 36 3 69 4 75 1 9 55 -85 67
-118 7 -18 150 -91 163 -83 3 2 40 7 81 11 41 3 77 9 80 13 3 4 23 8 45 8 76
2 85 4 85 15 0 9 -84 135 -100 149 -3 3 -34 46 -69 95 -36 50 -88 122 -116
160 -61 83 -72 101 -57 91 16 -10 116 31 141 58 12 12 23 32 26 44 10 54 33
69 130 86 62 11 117 73 118 133 0 70 -3 79 -41 121 -40 43 -94 72 -124 67 -16
-3 -16 -1 -3 25 l15 29 -57 21 c-32 12 -70 24 -85 27 -16 3 -28 10 -28 15 0 5
20 52 45 104 25 51 45 100 45 109 0 8 6 15 13 16 6 0 22 2 35 5 14 2 36 -5 55
-20 64 -48 143 -79 237 -94 93 -14 355 -7 530 14 117 15 314 129 309 180 0 4
5 10 11 14 8 5 15 44 18 102 4 88 3 99 -22 148 -15 29 -46 76 -69 103 -23 28
-47 61 -54 74 -10 20 -9 24 10 35 12 7 24 12 27 13 3 0 36 24 73 54 76 60 132
132 124 162 -3 10 -2 19 3 19 11 0 -8 80 -25 107 -8 12 -35 41 -61 65 -95 88
-91 76 -68 201 6 36 4 39 -63 105 -88 87 -170 145 -306 216 -133 71 -173 83
-262 81 -246 -6 -430 -86 -486 -209 -17 -39 -17 -39 -81 -41 l-63 -2 -1 31
c-1 67 -21 164 -37 184 -10 13 -62 10 -95 -7 -54 -27 -115 -51 -129 -51 -9 0
-28 13 -43 28 -21 22 -26 36 -24 68 5 77 16 120 43 174 52 101 50 113 -44 205
-26 26 -30 36 -28 85 2 61 1 174 -2 294 -1 43 2 99 6 125 14 87 21 124 24 142
7 37 46 112 75 145 43 49 68 103 79 170 5 33 21 99 35 148 14 48 26 94 26 102
0 18 2 18 50 -7 34 -18 52 -21 104 -16 l64 6 39 -67 c50 -82 84 -104 162 -101
31 1 62 4 69 7 14 5 16 54 3 68 -6 5 -1 10 14 10 13 1 38 9 56 18 18 9 33 15
34 14 23 -44 24 -59 5 -91 -16 -28 -18 -39 -9 -71 7 -25 15 -36 24 -32 7 2 19
-2 27 -11 17 -21 71 -43 105 -43 37 0 93 40 100 71 3 15 18 36 34 48 82 61
-37 158 -161 130 -29 -7 -39 -4 -57 13 -28 26 -29 38 -4 31 17 -4 53 29 64 60
3 9 9 7 23 -4 22 -19 71 -36 129 -45 58 -9 86 -6 112 11 23 15 57 81 49 94 -3
4 -6 32 -7 61 -2 42 -8 60 -26 78 -21 21 -21 23 -5 29 65 22 109 48 147 88 24
25 49 45 55 45 5 0 27 17 48 38 45 45 68 58 113 61 25 2 57 35 74 75 17 40 6
48 -31 21 -12 -8 -23 -12 -26 -10 -2 3 -20 -9 -39 -25 -28 -24 -31 -31 -19
-39 12 -8 10 -12 -10 -19 -22 -8 -26 -6 -31 18 -3 15 -16 43 -27 62 l-21 34
49 49 c27 27 47 52 44 57 -3 4 0 8 5 8 25 0 -2 183 -34 238 -16 27 -16 29 14
61 31 33 42 80 19 82 -7 1 -28 3 -46 5 -37 3 -62 19 -62 40 0 18 9 18 32 -3
37 -33 138 -10 172 39 22 31 20 47 -6 57 -13 5 -43 28 -68 50 -40 37 -93 68
-143 85 -16 5 -16 7 3 26 27 27 25 35 -12 58 -136 82 -232 119 -388 152 -138
28 -220 31 -260 10 -28 -15 -29 -13 -28 28 1 80 -2 93 -34 123 -17 17 -46 38
-64 45 -42 18 -127 17 -176 0 -37 -13 -38 -13 -34 9 3 15 -1 26 -11 29 -19 8
-19 8 -76 -14z m-1406 -860 c1 -11 2 -29 3 -39 0 -11 4 -23 9 -27 4 -4 7 -14
7 -23 0 -9 -11 6 -25 33 -14 27 -32 57 -41 67 -12 13 -12 18 -2 22 20 7 48
-12 49 -33z m107 -175 c29 -9 28 -19 -5 -36 -42 -21 -56 -38 -50 -59 3 -11 1
-18 -4 -14 -5 3 -9 1 -9 -5 0 -16 48 -44 65 -37 19 7 20 -8 1 -23 -17 -14 -27
-59 -14 -67 4 -3 6 -10 2 -15 -15 -26 132 -129 198 -139 l38 -5 -30 -35 c-16
-19 -30 -37 -31 -40 0 -3 -2 -13 -4 -23 -6 -31 14 -73 41 -88 33 -17 68 -18
122 -3 45 13 45 13 85 -36 17 -20 26 -22 87 -18 64 3 70 2 79 -19 6 -13 23
-29 38 -35 29 -12 83 -66 83 -82 0 -5 6 -17 14 -25 41 -48 35 -136 -16 -229
-27 -50 -32 -69 -36 -158 -2 -57 0 -109 5 -119 7 -12 3 -42 -14 -104 -28 -98
-59 -161 -122 -244 -42 -57 -44 -58 -55 -35 -7 13 -41 70 -76 128 -76 127 -90
151 -148 260 -25 47 -52 96 -61 110 -8 14 -16 27 -16 30 -1 3 -10 23 -22 45
-33 63 -120 276 -133 325 -13 51 -38 132 -85 275 -19 55 -39 127 -46 160 -7
33 -14 65 -15 70 -7 31 -16 82 -17 93 0 6 -3 12 -6 12 -4 0 -6 12 -5 27 0 15
-3 47 -8 72 -5 25 -11 63 -14 85 -6 36 -5 38 17 31 13 -4 36 -16 51 -26 37
-26 39 -24 34 23 l-5 41 32 -30 c18 -17 42 -34 55 -38z m778 -632 c-3 -16 -9
-39 -12 -52 -10 -48 -19 -53 -37 -21 -10 17 -14 30 -8 30 5 0 19 16 31 35 26
42 35 45 26 8z m1064 -267 c0 -2 -8 -10 -17 -17 -16 -13 -17 -12 -4 4 13 16
21 21 21 13z m-750 -1670 c0 -3 -4 -8 -10 -11 -5 -3 -10 -1 -10 4 0 6 5 11 10
11 6 0 10 -2 10 -4z m744 -94 c3 -5 -1 -9 -9 -9 -8 0 -12 4 -9 9 3 4 7 8 9 8
2 0 6 -4 9 -8z m61 -22 c8 -13 -15 -13 -35 0 -12 8 -11 10 7 10 12 0 25 -4 28
-10z m-95 -50 c0 -5 -7 -7 -15 -4 -8 4 -15 8 -15 10 0 2 7 4 15 4 8 0 15 -4
15 -10z m-7370 -64 c0 -3 -4 -8 -10 -11 -5 -3 -10 -1 -10 4 0 6 5 11 10 11 6
0 10 -2 10 -4z m744 -904 c3 -5 -1 -9 -9 -9 -8 0 -15 4 -15 9 0 4 4 8 9 8 6 0
12 -4 15 -8z m5148 -699 c45 -44 51 -88 16 -120 -30 -26 -58 -36 -59 -20 -3
71 -3 177 1 177 2 0 21 -17 42 -37z m-4702 -25 c0 -5 7 -8 15 -8 8 0 16 -6 16
-12 4 -37 4 -94 1 -101 -4 -8 -81 110 -82 124 0 4 11 6 25 5 14 0 25 -4 25 -8z
m3759 -196 c20 2 31 -4 31 -17 0 -8 4 -15 9 -15 9 0 8 -221 -2 -255 -3 -11
-11 -41 -17 -67 -13 -51 -42 -88 -68 -88 -27 1 -50 23 -57 56 -4 16 -10 40
-15 54 -18 52 -28 256 -16 315 3 11 5 27 5 37 1 15 6 15 62 -2 34 -11 65 -19
68 -18z m-552 -17 c0 -8 -4 -12 -9 -9 -5 3 -6 10 -3 15 9 13 12 11 12 -6z
m-384 -42 c-4 -21 -7 -47 -7 -58 -1 -18 -7 -20 -51 -18 -53 3 -95 -16 -95 -43
0 -32 -18 -3 -23 38 -3 24 -8 53 -11 66 l-5 23 32 -19 c41 -24 68 -20 121 17
22 16 42 30 43 30 2 1 0 -16 -4 -36z m2228 -257 c1 -81 8 -158 14 -175 4 -10
3 -12 -3 -6 -7 8 -26 63 -77 230 -1 7 11 9 31 7 34 -4 34 -5 35 -56z"/>
</g>
</svg>
